<svg xmlns="http://www.w3.org/2000/svg" version="1.1" viewBox="-5.0 -10.0 110.0 135.0">
 <path d="m49.074 25.109c0.027343 0.007813 0.046875 0.027344 0.054687 0.050781 0.007813 0.027344-0.003906 0.054688-0.027344 0.066406-0.41016 0.19141-0.63281 0.64063-0.53516 1.082 0.14844 0.41016 0.40234 0.77734 0.73828 1.0586 1.1328 1.1289 2.707 2.5352 1.8789 4.332-0.066406 0.14453-0.33203 0.61328-0.79297 1.4141v0.003907c-0.26953 0.44531-0.27344 1.0039-0.019531 1.457 0.25781 0.45312 0.73828 0.73047 1.2617 0.73047 2.3242 0.15234 3.6094 1.1172 4.1094 3.4219 0.31641 1.4492 0.53516 3.1133 2.4766 3.0703 0.058594 0 0.10156 0.058594 0.082031 0.11328-0.65234 2.1211-1.9414 3.9922-3.6914 5.3555-1.1172 0.87109-2.7461 1.5938-3.9727 2.4375-4.2148 2.9102-6.9258 7.6094-8.7188 12.391-1.1719 3.1289-2.1914 6.2695-3.0586 9.4141-0.34375 1.2539-1.1523 3.6094-2.9336 3.0391-1.1602-0.37109-1.7852-1.625-2.2773-2.6836-4.8984-10.957-4.8594-23.484 0.10547-34.41 2.5586-5.7969 7.875-13.465 15.32-12.344z"/>
 <path d="m58.547 40.031c-0.68359 0.023438-0.96875-0.39453-1.1992-0.96484-0.85938-2.1016-1.3125-4.4141-4.0781-5.0156-0.39453-0.085937-0.73828-0.14453-1.0312-0.17969h-0.003906c-0.12891-0.007813-0.25-0.066406-0.33984-0.16406-0.12891-0.15625-0.13672-0.38281-0.015625-0.55078 0.27734-0.375 0.53516-0.76562 0.77344-1.1719 1.2773-2.2266-1.4375-3.7383-2.3438-5.4727-0.03125-0.0625-0.039063-0.13672-0.019532-0.20312 0.070313-0.19922 0.17969-0.38281 0.32813-0.53516 0.039062-0.046876 0.10547-0.0625 0.16406-0.042969 0.28516 0.10547 0.55859 0.23828 0.81641 0.40234 1.2734 0.88281 2.4414 1.9102 3.4766 3.0664 0.62891 0.65625 1.5898 0.86719 2.4336 0.53516 0.61719-0.20703 1.457-0.46484 2.5195-0.77344v-0.003907c1.4414-0.39453 2.9375-0.56641 4.4297-0.5 1.9766 0.050781 3.9062 0.60938 5.6055 1.6211 0.3125 0.21484 0.48438 0.57812 0.44922 0.95312-0.03125 0.37891-0.26562 0.70703-0.60547 0.86328-0.37109 0.11719-0.76953 0.10547-1.1289-0.039062-2.375-0.66406-4.8516-0.86328-7.3008-0.58594-0.16016 0.015625-0.3125 0.082031-0.4375 0.18359-1.5977 1.2383-2.5 3.1719-2.4219 5.1953 0.125 1.082 0.14453 2.1758 0.058593 3.2617-0.007812 0.066406-0.0625 0.12109-0.12891 0.12109z"/>
<text x="0.0" y="117.5" font-size="5.0" font-weight="bold" font-family="Arbeit Regular, Helvetica, Arial-Unicode, Arial, Sans-serif" fill="#000000">Created by Pekosman</text><text x="0.0" y="122.5" font-size="5.0" font-weight="bold" font-family="Arbeit Regular, Helvetica, Arial-Unicode, Arial, Sans-serif" fill="#000000">from Noun Project</text></svg>